<?xml version="1.0" encoding="iso-8859-1"?>
<!-- Generator: Adobe Illustrator 19.0.0, SVG Export Plug-In . SVG Version: 6.00 Build 0)  -->
<svg version="1.1" id="Layer_1" xmlns="http://www.w3.org/2000/svg" xmlns:xlink="http://www.w3.org/1999/xlink" x="0px" y="0px"
	 viewBox="0 0 504.599 504.599" style="enable-background:new 0 0 504.599 504.599;" xml:space="preserve">
<g transform="translate(1 1)">
	<path style="fill:#E2E3E5;" d="M269.01,112.594C287.628,67.91,330.45,37.19,380.719,37.19c67.025,0,115.433,57.716,121.949,125.673
		c0,0,3.724,16.756-3.724,47.476c-10.24,41.891-32.582,79.127-64.233,107.055L269.01,465.409L106.101,318.325
		C74.45,290.398,52.108,253.161,41.868,211.27c-7.447-30.72-3.724-47.476-3.724-47.476C43.73,94.907,92.137,37.19,160.094,37.19
		C209.432,37.19,249.461,68.841,269.01,112.594"/>
	<path style="fill:#CCCCCC;" d="M239.221,112.594C257.839,67.91,300.661,37.19,350.93,37.19
		c67.025,0,115.433,57.716,121.949,125.673c0,0,3.724,16.756-3.724,47.476c-10.24,41.891-32.582,79.127-64.233,107.055
		L239.221,465.409L76.312,318.325c-31.651-27.927-53.993-65.164-64.233-107.055c-7.447-30.72-3.724-47.476-3.724-47.476
		C14.872,94.907,63.279,37.19,130.304,37.19C180.573,37.19,220.603,68.841,239.221,112.594"/>
	<path style="fill:#E2E3E5;" d="M236.428,112.594c18.618-44.684,37.236-75.404,87.505-75.404
		c67.025,0,115.433,57.716,121.949,125.673c0,0,3.724,16.756-3.724,47.476c-10.24,41.891-32.582,79.127-64.233,107.055
		L236.428,465.409L74.45,318.325c-31.651-27.927-50.269-65.164-60.509-107.055c-7.447-30.72-3.724-47.476-3.724-47.476
		C15.803,94.907,60.486,37.19,128.443,37.19C177.781,37.19,217.81,68.841,236.428,112.594"/>
	<path style="fill:#FFFFFF;" d="M10.217,163.794C15.803,94.907,64.21,37.19,132.166,37.19c4.655,0,8.378,0,13.033,0.931
		C84.69,45.569,41.868,99.561,36.283,163.794c0,0-3.724,16.756,3.724,47.476c10.24,41.891,32.582,79.127,64.233,107.055
		l139.636,146.153l-0.931,0.931L78.173,318.325c-31.651-27.927-53.993-65.164-64.233-107.055
		C6.493,180.55,10.217,163.794,10.217,163.794"/>
	<path style="fill:#B6B6B6;" d="M239.221,474.718c-1.862,0-4.655-0.931-6.516-2.793L70.726,324.841
		c-33.513-30.72-56.785-68.887-67.025-111.709c-6.516-29.789-4.655-47.476-3.724-51.2C6.493,84.667,61.417,27.881,130.304,27.881
		c45.615,0,85.644,24.204,108.916,64.233c23.273-40.029,66.095-64.233,111.709-64.233c68.887,0,123.811,56.785,131.258,134.051
		c0.931,3.724,2.793,21.411-3.724,51.2c-10.24,42.822-33.513,80.989-67.025,111.709L245.737,472.856
		C243.875,473.787,241.083,474.718,239.221,474.718z M130.304,46.499c-59.578,0-106.124,49.338-112.64,118.225v0.931
		c0,0-2.793,15.825,3.724,43.753c9.309,39.098,30.72,74.473,61.44,102.4l156.393,141.498l159.185-141.498
		c30.72-27.927,52.131-63.302,61.44-102.4c6.516-27.927,3.724-43.753,3.724-43.753c-6.516-69.818-53.993-119.156-112.64-119.156
		c-44.684,0-84.713,26.996-103.331,69.818c-1.862,3.724-4.655,5.585-8.378,5.585s-7.447-1.862-8.378-5.585
		C212.224,73.496,174.057,46.499,130.304,46.499z"/>
</g>
<g>
</g>
<g>
</g>
<g>
</g>
<g>
</g>
<g>
</g>
<g>
</g>
<g>
</g>
<g>
</g>
<g>
</g>
<g>
</g>
<g>
</g>
<g>
</g>
<g>
</g>
<g>
</g>
<g>
</g>
</svg>
